<svg width="24" height="20" viewBox="0 0 24 20" fill="none" xmlns="http://www.w3.org/2000/svg">
<path fill-rule="evenodd" clip-rule="evenodd" d="M0.75 2C0.75 1.30964 1.30964 0.75 2 0.75H22C22.6904 0.75 23.25 1.30964 23.25 2C23.25 2.69036 22.6904 3.25 22 3.25H2C1.30964 3.25 0.75 2.69036 0.75 2Z" fill="white"/>
<path fill-rule="evenodd" clip-rule="evenodd" d="M0.75 10C0.75 9.30964 1.30964 8.75 2 8.75H22C22.6904 8.75 23.25 9.30964 23.25 10C23.25 10.6904 22.6904 11.25 22 11.25H2C1.30964 11.25 0.75 10.6904 0.75 10Z" fill="white"/>
<path fill-rule="evenodd" clip-rule="evenodd" d="M0.75 18C0.75 17.3096 1.30964 16.75 2 16.75H16C16.6904 16.75 17.25 17.3096 17.25 18C17.25 18.6904 16.6904 19.25 16 19.25H2C1.30964 19.25 0.75 18.6904 0.75 18Z" fill="white"/>
</svg>
