<svg width="20" height="36" viewBox="0 0 20 36" fill="none" xmlns="http://www.w3.org/2000/svg">
<path fill-rule="evenodd" clip-rule="evenodd" d="M2.5 13C2.5 12.7239 2.72386 12.5 3 12.5H17C17.2761 12.5 17.5 12.7239 17.5 13C17.5 13.2761 17.2761 13.5 17 13.5H3C2.72386 13.5 2.5 13.2761 2.5 13Z" fill="#9797AF"/>
<path fill-rule="evenodd" clip-rule="evenodd" d="M3.4584 12.5H16.5059L15.6411 23.6926C15.5405 24.9947 14.4546 26 13.1486 26H6.84639C5.54299 26 4.45829 24.9986 4.35435 23.6994L3.4584 12.5ZM4.5416 13.5L5.35117 23.6196C5.41353 24.3992 6.06435 25 6.84639 25H13.1486C13.9322 25 14.5837 24.3968 14.6441 23.6155L15.4256 13.5H4.5416Z" fill="#9797AF"/>
<path fill-rule="evenodd" clip-rule="evenodd" d="M13 13.5H7V11.4688C7 10.6576 7.65758 10 8.46875 10H11.5312C12.3424 10 13 10.6576 13 11.4688V13.5ZM8.46875 11C8.20987 11 8 11.2099 8 11.4688V12.5H12V11.4688C12 11.2099 11.7901 11 11.5312 11H8.46875Z" fill="#9797AF"/>
</svg>
