<svg width="32" height="25" viewBox="0 0 32 25" fill="none" xmlns="http://www.w3.org/2000/svg">
<rect y="0.5" width="32" height="24" rx="4" fill="#F6F6FA"/>
<path fill-rule="evenodd" clip-rule="evenodd" d="M18.8883 18.0017H12.7637V6.99487H18.8884L18.8883 18.0017Z" fill="#6C6BBD"/>
<path fill-rule="evenodd" clip-rule="evenodd" d="M13.1515 12.5001C13.1515 10.2674 14.1969 8.27845 15.8248 6.99668C14.5928 6.02523 13.0681 5.49766 11.4992 5.50001C7.63356 5.50001 4.5 8.63401 4.5 12.5001C4.5 16.3662 7.63356 19.5002 11.4992 19.5002C13.0681 19.5025 14.5929 18.9749 15.8249 18.0035C14.1971 16.7219 13.1515 14.7329 13.1515 12.5001Z" fill="#EB001B"/>
<path fill-rule="evenodd" clip-rule="evenodd" d="M27.1497 12.5001C27.1497 16.3662 24.0161 19.5002 20.1505 19.5002C18.5814 19.5024 17.0565 18.9749 15.8242 18.0035C17.4526 16.7217 18.498 14.7329 18.498 12.5001C18.498 10.2672 17.4526 8.27845 15.8242 6.99668C17.0564 6.02523 18.5813 5.49773 20.1504 5.50001C24.016 5.50001 27.1496 8.63401 27.1496 12.5001" fill="#0099DF"/>
</svg>
