<svg width="28" height="28" viewBox="0 0 28 28" fill="none" xmlns="http://www.w3.org/2000/svg">
<path fill-rule="evenodd" clip-rule="evenodd" d="M5.99886 12C5.99886 10.4087 6.631 8.88258 7.75622 7.75736C8.88143 6.63214 10.4076 6 11.9989 6C13.5902 6 15.1163 6.63214 16.2415 7.75736C17.3667 8.88258 17.9989 10.4087 17.9989 12C17.9989 13.5913 17.3667 15.1174 16.2415 16.2426C15.1163 17.3679 13.5902 18 11.9989 18C10.4076 18 8.88143 17.3679 7.75622 16.2426C6.631 15.1174 5.99886 13.5913 5.99886 12ZM11.9989 4C10.7257 4.00018 9.471 4.30422 8.339 4.88684C7.20699 5.46946 6.23038 6.31384 5.49034 7.3498C4.7503 8.38577 4.26819 9.5834 4.08409 10.8432C3.89998 12.1029 4.0192 13.3884 4.43183 14.5928C4.84446 15.7973 5.53859 16.8858 6.45652 17.768C7.37446 18.6502 8.48969 19.3006 9.70953 19.6651C10.9294 20.0296 12.2186 20.0977 13.4701 19.8638C14.7215 19.6298 15.8991 19.1006 16.9049 18.32L22.4339 23.85C22.6215 24.0375 22.8759 24.1428 23.1412 24.1427C23.4065 24.1426 23.6608 24.0371 23.8484 23.8495C24.0359 23.6619 24.1412 23.4074 24.1411 23.1421C24.141 22.8769 24.0355 22.6225 23.8479 22.435L18.3179 16.905C19.2356 15.7225 19.8032 14.3063 19.9561 12.8173C20.109 11.3283 19.8411 9.82621 19.1829 8.48188C18.5246 7.13754 17.5024 6.00485 16.2324 5.21256C14.9625 4.42027 13.4957 4.00017 11.9989 4Z" fill="white"/>
</svg>
