<svg width="28" height="29" viewBox="0 0 28 29" fill="none" xmlns="http://www.w3.org/2000/svg">
<path fill-rule="evenodd" clip-rule="evenodd" d="M10.3248 18.4744C10.4895 18.9686 10.99 19.2688 11.5036 19.1814L24.1601 17.0281C24.596 16.954 24.9396 16.616 25.0209 16.1813L26.5023 8.25891C26.5592 7.95471 26.3289 7.67241 26.0194 7.66708L7.35686 7.34608C6.99275 7.33982 6.7318 7.69539 6.84695 8.04086L10.3248 18.4744Z" fill="#CB11AB"/>
<path fill-rule="evenodd" clip-rule="evenodd" d="M23.75 25.3333C24.9926 25.3333 26 24.3259 26 23.0833C26 21.8406 24.9926 20.8333 23.75 20.8333C22.5074 20.8333 21.5 21.8406 21.5 23.0833C21.5 24.3259 22.5074 25.3333 23.75 25.3333Z" fill="#CB11AB"/>
<path fill-rule="evenodd" clip-rule="evenodd" d="M10.75 25.3333C11.9926 25.3333 13 24.3259 13 23.0833C13 21.8406 11.9926 20.8333 10.75 20.8333C9.50736 20.8333 8.5 21.8406 8.5 23.0833C8.5 24.3259 9.50736 25.3333 10.75 25.3333Z" fill="#CB11AB"/>
<path fill-rule="evenodd" clip-rule="evenodd" d="M2.45442 3.56046C3.1177 3.41833 4.01745 3.33325 5 3.33325C5.98255 3.33325 6.8823 3.41833 7.54558 3.56046C7.87345 3.63072 8.16489 3.71927 8.38495 3.83075C8.4917 3.88484 8.61185 3.959 8.71511 4.06714C8.80017 4.15621 9 4.40237 9 4.83325C9 5.26413 8.80017 5.5103 8.71511 5.59937C8.61185 5.7075 8.4917 5.78167 8.38495 5.83575C8.16489 5.94724 7.87345 6.03579 7.54558 6.10604C6.8823 6.24818 5.98255 6.33325 5 6.33325C4.01745 6.33325 3.1177 6.24818 2.45442 6.10604C2.12655 6.03579 1.83511 5.94724 1.61505 5.83575C1.5083 5.78167 1.38815 5.7075 1.28489 5.59937C1.19983 5.5103 1 5.26413 1 4.83325C1 4.40237 1.19983 4.15621 1.28489 4.06714C1.38815 3.959 1.5083 3.88484 1.61505 3.83075C1.83511 3.71927 2.12655 3.63072 2.45442 3.56046Z" fill="#CB11AB"/>
</svg>
