<svg width="29" height="29" viewBox="0 0 29 29" fill="none" xmlns="http://www.w3.org/2000/svg">
<g clip-path="url(#clip0_13_122)">
<rect width="28" height="28" transform="translate(0.5 0.333252)" fill="white"/>
<path fill-rule="evenodd" clip-rule="evenodd" d="M20.2961 17.8333L23.1846 20.7217C23.2211 20.7583 23.2568 20.7955 23.2914 20.8333H27C27.8285 20.8333 28.5 20.1617 28.5 19.3333C28.5 18.5048 27.8285 17.8333 27 17.8333H20.2961ZM20.1278 8.83325C19.7007 7.73683 19.1026 6.72591 18.3662 5.83325H27C27.8285 5.83325 28.5 6.50482 28.5 7.33325C28.5 8.16168 27.8285 8.83325 27 8.83325H20.1278ZM20.8735 12.82C20.8735 12.4874 20.8587 12.1583 20.8298 11.8333H27C27.8285 11.8333 28.5 12.5048 28.5 13.3333C28.5 14.1617 27.8285 14.8333 27 14.8333H20.6891C20.8103 14.1799 20.8735 13.5068 20.8735 12.82Z" fill="#CCCCCC"/>
<path fill-rule="evenodd" clip-rule="evenodd" d="M4.3999 12.82C4.3999 9.78974 6.85639 7.33325 9.88663 7.33325C12.9169 7.33325 15.3734 9.78974 15.3734 12.82C15.3734 15.8502 12.9169 18.3067 9.88663 18.3067C6.85639 18.3067 4.3999 15.8502 4.3999 12.82ZM0.899902 12.82C0.899902 7.85675 4.9234 3.83325 9.88663 3.83325C14.8499 3.83325 18.8734 7.85675 18.8734 12.82C18.8734 14.1704 18.5755 15.4513 18.0419 16.6004C17.7159 17.3024 17.7875 18.1533 18.3348 18.7006L21.7702 22.136C22.3872 22.753 22.3872 23.7535 21.7702 24.3705C21.1531 24.9876 20.1527 24.9876 19.5356 24.3705L16.2116 21.0465C15.6412 20.4761 14.7457 20.4241 14.0301 20.7966C12.7903 21.4419 11.3811 21.8067 9.88663 21.8067C4.9234 21.8067 0.899902 17.7832 0.899902 12.82Z" fill="#CCCCCC"/>
</g>
<defs>
<clipPath id="clip0_13_122">
<rect width="28" height="28" fill="white" transform="translate(0.5 0.333252)"/>
</clipPath>
</defs>
</svg>
