<svg width="16" height="16" viewBox="0 0 16 16" fill="none" xmlns="http://www.w3.org/2000/svg">
<path fill-rule="evenodd" clip-rule="evenodd" d="M11.1585 1.05991L14.9401 4.84154L4.72705 15.0546L0.735435 15.8529C0.385575 15.9229 0.0771149 15.6144 0.147087 15.2646L0.94541 11.273L11.1585 1.05991ZM2.17707 11.9321L11.1585 2.95072L13.0493 4.84154L4.06789 13.8229L1.70436 14.2956L2.17707 11.9321Z" fill="#CB11AB"/>
<path fill-rule="evenodd" clip-rule="evenodd" d="M13.9948 5.78715L10.2132 2.00552L11.6313 0.587402C12.4145 -0.195801 13.6843 -0.195801 14.4675 0.587402L15.4129 1.53281C16.1961 2.31601 16.1961 3.58584 15.4129 4.36904L13.9948 5.78715ZM14.4675 3.42363C14.7286 3.16256 14.7286 2.73929 14.4675 2.47822L13.5221 1.53281C13.261 1.27174 12.8378 1.27174 12.5767 1.53281L12.104 2.00552L13.9948 3.89634L14.4675 3.42363Z" fill="#CB11AB"/>
</svg>
