<svg width="28" height="29" viewBox="0 0 28 29" fill="none" xmlns="http://www.w3.org/2000/svg">
<path fill-rule="evenodd" clip-rule="evenodd" d="M3.39249 13.7635C2.43526 14.7047 3.10172 16.333 4.44418 16.333H4.99997V22.3332C4.99997 23.4378 5.89541 24.3332 6.99997 24.3332H11.25C11.5261 24.3332 11.75 24.1093 11.75 23.8332V20.7433C11.75 19.6387 12.6454 18.7433 13.75 18.7433H14.25C15.3545 18.7433 16.25 19.6387 16.25 20.7433V23.8332C16.25 24.1093 16.4738 24.3332 16.75 24.3332H21C22.1045 24.3332 23 23.4378 23 22.3332V16.333H23.3787C24.7151 16.333 25.3843 14.7173 24.4393 13.7724L14.7012 4.03434C14.313 3.64615 13.6844 3.6435 13.2929 4.02842L3.39249 13.7635Z" fill="#CCCCCC"/>
</svg>
