<svg width="32" height="25" viewBox="0 0 32 25" fill="none" xmlns="http://www.w3.org/2000/svg">
<rect y="0.5" width="32" height="24" rx="4" fill="#F6F6FA"/>
<path fill-rule="evenodd" clip-rule="evenodd" d="M26.9337 16.8367V16.5649H26.8629L26.781 16.7514L26.6996 16.5649H26.6286V16.8367H26.6788V16.632L26.7554 16.8086H26.8075L26.884 16.6315V16.8367H26.9339H26.9337ZM26.4846 16.8367V16.6115H26.5752V16.5656H26.3438V16.6115H26.4343V16.8367H26.4846Z" fill="#F79410"/>
<path fill-rule="evenodd" clip-rule="evenodd" d="M18.8883 18.0014H12.7637V6.99463H18.8884L18.8883 18.0014Z" fill="#FF5F00"/>
<path fill-rule="evenodd" clip-rule="evenodd" d="M13.1515 12.4999C13.1515 10.2671 14.1969 8.27821 15.8248 6.99643C14.5928 6.02498 13.0681 5.49741 11.4992 5.49976C7.63356 5.49976 4.5 8.63376 4.5 12.4999C4.5 16.3659 7.63356 19.4999 11.4992 19.4999C13.0681 19.5023 14.5929 18.9747 15.8249 18.0032C14.1971 16.7217 13.1515 14.7327 13.1515 12.4999Z" fill="#EB001B"/>
<path fill-rule="evenodd" clip-rule="evenodd" d="M27.1497 12.4999C27.1497 16.3659 24.0161 19.4999 20.1505 19.4999C18.5814 19.5022 17.0565 18.9747 15.8242 18.0032C17.4526 16.7215 18.498 14.7327 18.498 12.4999C18.498 10.267 17.4526 8.27821 15.8242 6.99643C17.0564 6.02498 18.5813 5.49749 20.1504 5.49976C24.016 5.49976 27.1496 8.63376 27.1496 12.4999" fill="#F79410"/>
</svg>
