<svg width="32" height="24" viewBox="0 0 32 24" fill="none" xmlns="http://www.w3.org/2000/svg">
<rect width="32" height="24" rx="4" fill="#F6F6FA"/>
<path d="M17.6811 8.84383L15.8643 12.7584H15.6805V8.00037H13.0851V16.0024H15.2371C15.8211 16.0024 16.3402 15.6672 16.5889 15.1482L18.4165 11.2445H18.6004V16.0024H21.1958V8.00037H19.0113C18.449 8.00037 17.9191 8.33559 17.6811 8.84383Z" fill="#319B42"/>
<path d="M7.97243 9.04929L6.90182 12.7584H6.71798L5.63656 9.04929C5.45271 8.4221 4.87956 8.00037 4.2307 8.00037H1.66772V16.0024H4.26315V11.2445H4.44699L5.93935 16.0024H7.66963L9.162 11.2445H9.34584V16.0024H11.9413V8.00037H9.37829C8.72943 8.00037 8.14546 8.4221 7.97243 9.04929Z" fill="#319B42"/>
<path d="M22.3243 11.5675V16.0024H24.9206V13.4064H27.7115C28.9231 13.4064 29.9508 12.6383 30.3294 11.5675H22.3243Z" fill="#319B42"/>
<path d="M27.6357 8.00037H21.859C22.216 9.90417 23.8819 11.2455 25.8832 11.2455H30.3725C30.405 11.0724 30.4266 10.8777 30.4266 10.683C30.4266 9.13616 29.1826 8.00037 27.6357 8.00037Z" fill="url(#paint0_linear_7_2282)"/>
<defs>
<linearGradient id="paint0_linear_7_2282" x1="21.859" y1="9.62293" x2="30.4266" y2="9.62293" gradientUnits="userSpaceOnUse">
<stop stop-color="#00A3E1"/>
<stop offset="0.3042" stop-color="#009ADD"/>
<stop offset="0.7987" stop-color="#0082D4"/>
<stop offset="1" stop-color="#0076CF"/>
</linearGradient>
</defs>
</svg>
