<svg width="32" height="25" viewBox="0 0 32 25" fill="none" xmlns="http://www.w3.org/2000/svg">
<rect y="0.5" width="32" height="24" rx="4" fill="#F6F6FA"/>
<path fill-rule="evenodd" clip-rule="evenodd" d="M16.4709 10.6782C16.453 12.0858 17.7254 12.8713 18.6838 13.3384C19.6686 13.8176 19.9994 14.1249 19.9956 14.5534C19.9881 15.2093 19.21 15.4987 18.4818 15.51C17.2113 15.5297 16.4727 15.167 15.8855 14.8926L15.4279 17.0341C16.017 17.3057 17.108 17.5425 18.2394 17.5528C20.8949 17.5528 22.6323 16.242 22.6418 14.2095C22.6521 11.6301 19.0738 11.4873 19.0982 10.3343C19.1067 9.98472 19.4403 9.61163 20.1713 9.51674C20.5331 9.46886 21.532 9.43217 22.6643 9.95366L23.1087 7.88176C22.4998 7.65997 21.7171 7.44757 20.7427 7.44757C18.2431 7.44757 16.485 8.77627 16.4709 10.6782ZM27.3796 7.6261C26.8947 7.6261 26.4859 7.90899 26.3037 8.3431L22.5102 17.4006H25.1638L25.6919 15.9412H28.9347L29.241 17.4006H31.5799L29.5389 7.6261H27.3796ZM27.7507 10.2666L28.5165 13.9369H26.4192L27.7507 10.2666ZM13.2535 7.6261L11.1618 17.4006H13.6904L15.7812 7.6261H13.2535ZM9.51266 7.6261L6.88061 14.279L5.81595 8.62215C5.69101 7.99074 5.19768 7.6261 4.64982 7.6261H0.347122L0.286962 7.90992C1.17028 8.10159 2.17385 8.41077 2.78179 8.74153C3.15386 8.94353 3.2601 9.12018 3.38222 9.60037L5.39874 17.4006H8.07123L12.1682 7.6261H9.51266Z" fill="#1434CB"/>
</svg>
